PathFileType	4	(x/y/z)	S05_P20_T22
DataRate	CameraRate	NumFrames	NumMarkers	Units	OrigDataRate	OrigDataStartFrame	OrigNumFrames
240	240	4	50	mm	240	1	391
Frame#	Time	Sternum			R.Acromium			L.Acromium			Top.Head			R.ASIS			L.ASIS			R.PSIS			L.PSIS			R.Great.Tro			L.Great.Tro			R.Iliac.Crest			L.Iliac.Crest			V.Sacral			R.Thigh.Upper.Post			R.Thigh.Lower.Ant			R.Thigh.Lower.Post			R.Thigh.Upper.Ant			R.Knee.Lat			R.Knee.Med			R.Shank.Upper.Post			R.Shank.Lower.Ant			R.Shank.Lower.Post			R.Shank.Upper.Ant			R.Ankle.Lat			R.Ankle.Med			R.Heel.Upper			R.Heel.Med			R.Heel.Lat			R.Toe.Lat			R.Toe.Med			R.Toe.Tip			L.Thigh.Upper.Post			L.Thigh.Lower.Ant			L.Thigh.Lower.Post			L.Thigh.Upper.Ant			L.Knee.Lat			L.Shank.Upper.Post			L.Shank.Lower.Ant			L.Shank.Lower.Post			L.Shank.Upper.Ant			L.Ankle.Lat			L.Ankle.Med			L.Heel.Upper			L.Heel.Med			L.Heel.Lat			L.Toe.Lat			L.Toe.Med			L.Toe.Tip			Cervical.Spine			Back			
		X1	Y1	Z1	X2	Y2	Z2	X3	Y3	Z3	X4	Y4	Z4	X5	Y5	Z5	X6	Y6	Z6	X7	Y7	Z7	X8	Y8	Z8	X9	Y9	Z9	X10	Y10	Z10	X11	Y11	Z11	X12	Y12	Z12	X13	Y13	Z13	X14	Y14	Z14	X15	Y15	Z15	X16	Y16	Z16	X17	Y17	Z17	X18	Y18	Z18	X19	Y19	Z19	X20	Y20	Z20	X21	Y21	Z21	X22	Y22	Z22	X23	Y23	Z23	X24	Y24	Z24	X25	Y25	Z25	X26	Y26	Z26	X27	Y27	Z27	X28	Y28	Z28	X29	Y29	Z29	X30	Y30	Z30	X31	Y31	Z31	X32	Y32	Z32	X33	Y33	Z33	X34	Y34	Z34	X35	Y35	Z35	X36	Y36	Z36	X37	Y37	Z37	X38	Y38	Z38	X39	Y39	Z39	X40	Y40	Z40	X41	Y41	Z41	X42	Y42	Z42	X43	Y43	Z43	X44	Y44	Z44	X45	Y45	Z45	X46	Y46	Z46	X47	Y47	Z47	X48	Y48	Z48	X49	Y49	Z49	X50	Y50	Z50	

1	0	NaN	NaN	NaN	-1467.2	1523.5	494.68	-1489.4	1542.5	170.51	-1480	1827.4	325.41	NaN	NaN	NaN	NaN	NaN	NaN	NaN	NaN	NaN	NaN	NaN	NaN	-1570.2	934.45	512.86	-1521.1	936.41	123.58	-1566.2	1097.4	492.83	-1536.6	1091.3	157.02	-1672.7	998.77	320.29	-1556.4	706.7	495.28	NaN	NaN	NaN	-1592.2	626.71	470.91	NaN	NaN	NaN	-1621.1	533.81	448.83	NaN	NaN	NaN	-1751.1	315.33	425.7	-1707	238.86	425.98	-1760.6	240.04	404.18	-1693.5	314.65	443.96	-1734.4	136.2	404.47	-1719.5	161.77	315.8	-1811.4	90.642	339.46	NaN	NaN	NaN	NaN	NaN	NaN	-1644.9	40.365	436.16	NaN	NaN	NaN	NaN	NaN	NaN	-1430.1	701.02	128.52	NaN	NaN	NaN	-1391.4	618.29	146.19	NaN	NaN	NaN	-1346.5	544.22	158.72	-1348	336.93	161.77	-1269.7	299.62	159.69	-1328.3	267.64	179.64	-1289.1	366.7	148.9	-1260.9	143.84	186.99	-1225	169.36	267.65	NaN	NaN	NaN	-1273.1	60.773	276.85	-1292.1	55.721	216.65	-1120.8	97.923	147.25	-1089	121.64	260.95	-1036	148.44	201.3	-1529	1568.5	342.03	-1651	1298.1	338.37
2	0.0041667	NaN	NaN	NaN	-1462.4	1522.7	494.29	-1484.5	1541.5	170.07	-1475.2	1826.5	324.68	NaN	NaN	NaN	NaN	NaN	NaN	NaN	NaN	NaN	NaN	NaN	NaN	-1565.4	933.82	512.72	-1515.5	935.33	123.38	-1561.1	1096.5	492.57	-1531.2	1090.2	156.68	-1667.4	997.75	319.78	-1552	706.08	495.24	NaN	NaN	NaN	-1587.8	626.07	470.91	NaN	NaN	NaN	-1617.4	533.34	448.82	NaN	NaN	NaN	-1749.2	315.93	425.68	-1705.6	238.98	425.95	-1759.6	240.95	404.25	-1691.4	314.67	443.96	-1733.2	136.03	404.32	-1718.7	162.16	315.76	-1811.1	91.48	339.44	NaN	NaN	NaN	NaN	NaN	NaN	-1644.9	40.256	436.17	NaN	NaN	NaN	NaN	NaN	NaN	-1425.6	699.98	128.46	NaN	NaN	NaN	-1387.2	616.92	146.22	NaN	NaN	NaN	-1342.2	542.78	158.88	-1342.8	335.43	161.86	-1264	298.57	159.95	-1322.5	266.25	179.82	-1284.1	365.54	148.99	-1254.4	142.89	187.23	-1218.5	168.7	267.88	NaN	NaN	NaN	-1265.3	59.722	276.92	-1285.4	55.65	216.41	-1113.8	97.718	147.61	-1082.3	121.72	261.28	-1029.4	148.86	201.61	-1524.1	1567.6	341.56	-1646.1	1297.1	337.99
3	0.0083333	NaN	NaN	NaN	-1457.4	1521.8	493.87	-1479.5	1540.6	169.61	-1470.2	1825.6	323.92	NaN	NaN	NaN	NaN	NaN	NaN	NaN	NaN	NaN	NaN	NaN	NaN	-1560.5	933.18	512.57	-1509.7	934.21	123.18	-1555.8	1095.5	492.28	-1525.6	1089.1	156.32	-1661.8	996.7	319.24	-1547.4	705.42	495.22	NaN	NaN	NaN	-1583.2	625.4	470.92	NaN	NaN	NaN	-1613.5	532.83	448.83	NaN	NaN	NaN	-1747.1	316.56	425.66	-1704	239.12	425.93	-1758.4	241.89	404.32	-1689.2	314.69	443.97	-1732	135.88	404.17	-1717.8	162.59	315.74	-1810.8	92.4	339.42	NaN	NaN	NaN	NaN	NaN	NaN	-1644.9	40.149	436.18	NaN	NaN	NaN	NaN	NaN	NaN	-1421	698.91	128.42	NaN	NaN	NaN	-1382.7	615.53	146.29	NaN	NaN	NaN	-1337.6	541.3	159.05	-1337.4	333.88	161.98	-1258.1	297.45	160.24	-1316.7	264.82	180.02	-1278.8	364.31	149.1	-1247.8	141.86	187.5	-1212.1	167.96	268.15	NaN	NaN	NaN	-1257.3	58.596	277	-1278.7	55.487	216.22	-1106.8	97.384	148	-1075.5	121.65	261.64	-1022.7	149.12	201.95	-1519	1566.7	341.06	-1640.9	1296.1	337.59
4	0.0125	NaN	NaN	NaN	-1452.3	1521	493.44	-1474.3	1539.6	169.12	-1465	1824.7	323.12	NaN	NaN	NaN	NaN	NaN	NaN	NaN	NaN	NaN	NaN	NaN	NaN	-1555.3	932.53	512.41	-1503.7	933.08	122.96	-1550.3	1094.6	491.99	-1519.8	1088	155.95	-1656.1	995.62	318.69	-1542.6	704.75	495.19	NaN	NaN	NaN	-1578.5	624.71	470.94	NaN	NaN	NaN	-1609.3	532.3	448.85	NaN	NaN	NaN	-1744.9	317.22	425.65	-1702.4	239.28	425.92	-1757.1	242.88	404.38	-1686.8	314.72	444	-1730.7	135.77	404.03	-1716.8	163.05	315.73	-1810.5	93.412	339.41	NaN	NaN	NaN	NaN	NaN	NaN	-1644.9	40.046	436.19	NaN	NaN	NaN	NaN	NaN	NaN	-1416.1	697.84	128.42	NaN	NaN	NaN	-1378.1	614.15	146.4	NaN	NaN	NaN	-1332.8	539.8	159.22	-1332	332.3	162.14	-1252.2	296.25	160.55	-1310.8	263.34	180.27	-1273.5	363.01	149.25	-1241.2	140.75	187.81	-1205.6	167.12	268.47	NaN	NaN	NaN	-1249.3	57.401	277.08	-1272	55.214	216.1	-1099.9	96.899	148.43	-1068.8	121.41	262.04	-1016.1	149.18	202.32	-1513.8	1565.7	340.54	-1635.6	1295	337.17
